<svg width="55" height="60" viewBox="0 0 55 60" fill="none" xmlns="http://www.w3.org/2000/svg">
<path d="M27.5 7.5C26.8229 7.5 26.1524 7.6455 25.5268 7.92818C24.9012 8.21086 24.3328 8.6252 23.854 9.14752C23.3752 9.66985 22.9954 10.2899 22.7362 10.9724C22.4771 11.6549 22.3438 12.3863 22.3438 13.125C22.3438 13.8637 22.4771 14.5951 22.7362 15.2776C22.9954 15.9601 23.3752 16.5801 23.854 17.1025C24.3328 17.6248 24.9012 18.0391 25.5268 18.3218C26.1524 18.6045 26.8229 18.75 27.5 18.75C28.8675 18.75 30.179 18.1574 31.146 17.1025C32.113 16.0476 32.6562 14.6168 32.6562 13.125C32.6562 11.6332 32.113 10.2024 31.146 9.14752C30.179 8.09263 28.8675 7.5 27.5 7.5ZM18.9062 13.125C18.9062 10.6386 19.8117 8.25403 21.4233 6.49587C23.0349 4.73772 25.2208 3.75 27.5 3.75C29.7792 3.75 31.9651 4.73772 33.5767 6.49587C35.1883 8.25403 36.0938 10.6386 36.0938 13.125C36.0938 15.6114 35.1883 17.996 33.5767 19.7541C31.9651 21.5123 29.7792 22.5 27.5 22.5C25.2208 22.5 23.0349 21.5123 21.4233 19.7541C19.8117 17.996 18.9062 15.6114 18.9062 13.125ZM13.75 31.875C13.7523 31.19 13.8165 30.5275 13.9425 29.8875L7.26 31.8375C6.60582 32.0289 5.99262 32.3591 5.45543 32.8091C4.91824 33.2591 4.46759 33.8202 4.12922 34.4603C3.79085 35.1003 3.57138 35.8068 3.48337 36.5395C3.39535 37.2721 3.4405 38.0164 3.61625 38.73L4.95 44.1637C5.30859 45.6218 5.93249 46.9861 6.78453 48.1756C7.63658 49.365 8.69935 50.3553 9.90955 51.0873C11.1197 51.8193 12.4526 52.2781 13.8287 52.4364C15.2049 52.5947 16.5962 52.4493 17.9197 52.0088C17.0003 51.0359 16.2101 49.9277 15.5719 48.7163C13.9525 48.8868 12.3302 48.4253 10.9934 47.4139C9.65654 46.4026 8.69178 44.9068 8.27062 43.1925L6.93344 37.755C6.8159 37.2746 6.87806 36.763 7.10626 36.3326C7.33446 35.9022 7.71001 35.5884 8.15031 35.46L13.75 33.825V31.875ZM37.4206 52.1175L37.0769 52.0125C37.9947 51.0375 38.7887 49.9313 39.4281 48.7163C41.0475 48.8868 42.6698 48.4253 44.0066 47.4139C45.3435 46.4026 46.3082 44.9068 46.7294 43.1925L48.0631 37.755C48.1808 37.2751 48.1191 36.764 47.8916 36.3337C47.6641 35.9034 47.2894 35.5892 46.8497 35.46L41.25 33.825V31.875C41.2477 31.19 41.1835 30.5275 41.0575 29.8875L47.7366 31.8375C48.3911 32.0285 49.0046 32.3584 49.5422 32.8082C50.0798 33.2581 50.5308 33.8191 50.8695 34.4592C51.2082 35.0993 51.428 35.806 51.5162 36.5388C51.6044 37.2716 51.5594 38.0162 51.3838 38.73L50.05 44.1637C49.3411 47.0447 47.6125 49.5005 45.2442 50.9913C42.8758 52.4822 40.0617 52.8896 37.4206 52.1175ZM6.875 18.75C6.875 17.7554 7.23716 16.8016 7.88182 16.0984C8.52648 15.3951 9.40082 15 10.3125 15C11.2242 15 12.0985 15.3951 12.7432 16.0984C13.3878 16.8016 13.75 17.7554 13.75 18.75C13.75 19.7446 13.3878 20.6984 12.7432 21.4016C12.0985 22.1049 11.2242 22.5 10.3125 22.5C9.40082 22.5 8.52648 22.1049 7.88182 21.4016C7.23716 20.6984 6.875 19.7446 6.875 18.75ZM10.3125 11.25C8.48914 11.25 6.74045 12.0402 5.45114 13.4467C4.16183 14.8532 3.4375 16.7609 3.4375 18.75C3.4375 20.7391 4.16183 22.6468 5.45114 24.0533C6.74045 25.4598 8.48914 26.25 10.3125 26.25C12.1359 26.25 13.8845 25.4598 15.1739 24.0533C16.4632 22.6468 17.1875 20.7391 17.1875 18.75C17.1875 16.7609 16.4632 14.8532 15.1739 13.4467C13.8845 12.0402 12.1359 11.25 10.3125 11.25ZM44.6875 15C43.7758 15 42.9015 15.3951 42.2568 16.0984C41.6122 16.8016 41.25 17.7554 41.25 18.75C41.25 19.7446 41.6122 20.6984 42.2568 21.4016C42.9015 22.1049 43.7758 22.5 44.6875 22.5C45.5992 22.5 46.4735 22.1049 47.1182 21.4016C47.7628 20.6984 48.125 19.7446 48.125 18.75C48.125 17.7554 47.7628 16.8016 47.1182 16.0984C46.4735 15.3951 45.5992 15 44.6875 15ZM37.8125 18.75C37.8125 16.7609 38.5368 14.8532 39.8261 13.4467C41.1155 12.0402 42.8641 11.25 44.6875 11.25C46.5109 11.25 48.2595 12.0402 49.5489 13.4467C50.8382 14.8532 51.5625 16.7609 51.5625 18.75C51.5625 20.7391 50.8382 22.6468 49.5489 24.0533C48.2595 25.4598 46.5109 26.25 44.6875 26.25C42.8641 26.25 41.1155 25.4598 39.8261 24.0533C38.5368 22.6468 37.8125 20.7391 37.8125 18.75ZM22.3438 26.25C20.9762 26.25 19.6647 26.8426 18.6977 27.8975C17.7307 28.9524 17.1875 30.3832 17.1875 31.875V41.25C17.1875 44.2337 18.274 47.0952 20.208 49.205C22.1419 51.3147 24.765 52.5 27.5 52.5C30.235 52.5 32.8581 51.3147 34.792 49.205C36.726 47.0952 37.8125 44.2337 37.8125 41.25V31.875C37.8125 30.3832 37.2693 28.9524 36.3023 27.8975C35.3353 26.8426 34.0238 26.25 32.6562 26.25H22.3438ZM20.625 31.875C20.625 31.3777 20.8061 30.9008 21.1284 30.5492C21.4507 30.1975 21.8879 30 22.3438 30H32.6562C33.1121 30 33.5493 30.1975 33.8716 30.5492C34.1939 30.9008 34.375 31.3777 34.375 31.875V41.25C34.375 43.2391 33.6507 45.1468 32.3614 46.5533C31.072 47.9598 29.3234 48.75 27.5 48.75C25.6766 48.75 23.928 47.9598 22.6386 46.5533C21.3493 45.1468 20.625 43.2391 20.625 41.25V31.875Z" fill="#75C4E7"/>
</svg>
